<?xml version="1.0" encoding="utf-8"?>
<!-- Generator: Adobe Illustrator 28.0.0, SVG Export Plug-In . SVG Version: 6.00 Build 0)  -->
<svg version="1.1" id="Layer_1" xmlns="http://www.w3.org/2000/svg" xmlns:xlink="http://www.w3.org/1999/xlink" x="0px" y="0px"
	 viewBox="0 0 25 25" style="enable-background:new 0 0 25 25;" xml:space="preserve">
<style type="text/css">
	.st0{fill:#DC1518;}
</style>
<g>
	<g>
		<path class="st0" d="M16.17,12.69c-4.27,0-8.45,0-12.67,0c0-1.61,0-3.2,0-4.82c4.22,0,8.42,0,12.67,0
			C16.18,9.5,16.17,11.09,16.17,12.69z"/>
		<path class="st0" d="M16.65,12.99c-0.05-1.33,0.1-2.61-0.11-3.92c0.13-0.11,0.26-0.1,0.32,0.13c0.06,0.25,0.12,0.5,0.13,0.75
			c0.02,0.87,0.01,1.73,0.01,2.6c0,0.14,0.01,0.27,0.02,0.43c0.2,0,0.36,0,0.58,0c0-0.43-0.01-0.84,0-1.26
			c0-0.18-0.09-0.42,0.2-0.51c0.03-0.01,0.05-0.14,0.05-0.21c0-0.38,0.01-0.76,0-1.15c0-0.09-0.05-0.18-0.09-0.27
			c-0.09-0.19-0.04-0.28,0.17-0.31c0.05-0.01,0.11-0.02,0.15,0c0.11,0.04,0.21,0.1,0.31,0.15c-0.07,0.09-0.14,0.17-0.21,0.26
			c-0.07,0.5-0.07,1.03-0.06,1.56c0.05,0,0.09,0,0.14,0.01c0.02-0.07,0.05-0.15,0.06-0.22c0.01-0.34,0.01-0.69,0-1.03
			c-0.01-0.24,0.07-0.35,0.33-0.35c0.5,0.01,0.99,0.01,1.49,0c0.29,0,0.47,0.13,0.58,0.4c0.19,0.49,0.4,0.96,0.59,1.45
			c0.17,0.41,0.11,0.83,0.05,1.24c-0.02,0.17-0.07,0.31,0.11,0.47c0.1,0.09,0.05,0.35,0.07,0.52c-0.38,0.11-0.7,0.2-1.07,0.31
			c-0.03-0.1-0.07-0.2-0.1-0.31c-0.21-0.63-0.75-1.03-1.41-1.02c-0.66,0.01-1.2,0.4-1.38,1.05c-0.06,0.24-0.16,0.33-0.41,0.33
			c-1.9-0.01-3.8,0-5.69-0.01c-0.07,0-0.15-0.02-0.2-0.02c-0.18-0.36-0.34-0.69-0.53-1.07C12.68,12.99,14.64,12.99,16.65,12.99z
			 M18.98,10.23c0,0.35,0,0.68,0,1c0.32,0,0.61,0,0.91,0c0-0.34,0-0.66,0-1C19.58,10.23,19.3,10.23,18.98,10.23z M20.69,11.24
			c-0.13-0.6-0.27-0.88-0.5-1.02c0,0.35,0,0.68,0,1.02C20.36,11.24,20.51,11.24,20.69,11.24z"/>
		<path class="st0" d="M12.83,16.83c0.14,0.01,0.26,0,0.36,0.03c0.06,0.01,0.1,0.08,0.15,0.13c-0.05,0.05-0.09,0.14-0.14,0.14
			c-0.47,0.01-0.94,0.01-1.41,0c-0.05,0-0.1-0.09-0.15-0.13c0.05-0.05,0.09-0.12,0.15-0.13c0.11-0.03,0.23-0.02,0.36-0.03
			c0.06-0.17,0.13-0.32-0.13-0.37c-0.02,0-0.07,0-0.07-0.02c-0.16-0.39-0.51-0.25-0.78-0.25c-2.19-0.01-4.38-0.01-6.58,0
			c-0.34,0-0.74-0.16-0.97,0.26c-0.24,0.01-0.26,0.15-0.19,0.37c0.11,0.01,0.24,0.01,0.36,0.03c0.06,0.01,0.1,0.08,0.16,0.13
			c-0.05,0.05-0.1,0.14-0.14,0.14c-0.47,0.01-0.94,0.01-1.41,0c-0.05,0-0.1-0.09-0.15-0.13c0.05-0.05,0.09-0.12,0.15-0.13
			c0.11-0.03,0.23-0.02,0.35-0.03c0.13-0.27,0.01-0.37-0.26-0.39c0-0.32,0-0.62,0-0.96c6.67,0,13.33,0,20.02,0c0,0.31,0,0.6,0,0.93
			c-0.13,0.07-0.41,0.08-0.25,0.42c0.1,0.01,0.23,0,0.35,0.03c0.06,0.01,0.1,0.08,0.15,0.13c-0.05,0.05-0.09,0.14-0.14,0.14
			c-0.47,0.01-0.94,0.01-1.41,0c-0.05,0-0.1-0.09-0.15-0.13c0.05-0.05,0.09-0.12,0.15-0.13c0.11-0.03,0.23-0.02,0.36-0.03
			c0.05-0.17,0.13-0.32-0.14-0.37c-0.05-0.01-0.12-0.04-0.12-0.07c-0.06-0.26-0.26-0.2-0.43-0.2c-2.19,0-4.38,0-6.58,0
			c-0.29,0-0.59,0-0.88,0c-0.13,0-0.26-0.02-0.3,0.16c-0.01,0.04-0.09,0.1-0.14,0.1C12.74,16.48,12.79,16.64,12.83,16.83z"/>
		<path class="st0" d="M18.97,15.42c-0.72,0-1.29-0.56-1.29-1.27c0-0.69,0.57-1.26,1.26-1.27c0.7-0.01,1.29,0.58,1.29,1.28
			C20.23,14.86,19.67,15.42,18.97,15.42z M19.58,14.16c0-0.33-0.27-0.6-0.6-0.61c-0.36-0.01-0.64,0.27-0.63,0.62
			c0.01,0.32,0.3,0.6,0.62,0.6C19.29,14.76,19.58,14.48,19.58,14.16z"/>
		<path class="st0" d="M7.85,14.14c0.01,0.71-0.56,1.28-1.28,1.28c-0.69,0-1.26-0.56-1.27-1.25c-0.01-0.7,0.58-1.29,1.28-1.29
			C7.27,12.88,7.84,13.45,7.85,14.14z M7.19,14.16c0-0.34-0.27-0.6-0.61-0.6c-0.35,0-0.64,0.28-0.63,0.62
			c0.01,0.33,0.3,0.6,0.63,0.59C6.91,14.76,7.2,14.48,7.19,14.16z"/>
		<path class="st0" d="M11,14.14c0.01,0.72-0.55,1.29-1.27,1.28c-0.7,0-1.26-0.56-1.28-1.25c-0.01-0.69,0.58-1.29,1.28-1.29
			C10.42,12.88,10.99,13.45,11,14.14z M10.34,14.15c0-0.34-0.26-0.6-0.6-0.6c-0.36,0-0.62,0.26-0.61,0.63
			c0.01,0.34,0.27,0.59,0.62,0.59C10.08,14.76,10.35,14.48,10.34,14.15z"/>
		<path class="st0" d="M4.03,13.02c0.52,0,1.03,0,1.51,0c-0.14,0.31-0.26,0.61-0.4,0.9c-0.03,0.07-0.12,0.15-0.18,0.15
			c-0.25,0.02-0.5,0.01-0.77,0.01C4.2,13.69,3.74,13.44,4.03,13.02z"/>
		<path class="st0" d="M-0.72,17.11c-0.1-0.25-0.07-0.38,0.15-0.46c0.94-0.34,1.88-0.68,2.82-1.02c0.02-0.01,0.05,0,0.09,0.01
			c0.08,0.18,0.08,0.33-0.15,0.41C1.23,16.4,0.27,16.75-0.72,17.11z"/>
		<path class="st0" d="M22.67,15.59c0.5,0.18,0.99,0.36,1.47,0.54c0.46,0.17,0.93,0.34,1.39,0.5c0.23,0.08,0.3,0.21,0.19,0.45
			c-0.06-0.01-0.12-0.01-0.18-0.03c-0.88-0.32-1.76-0.64-2.64-0.96C22.69,16.01,22.53,15.92,22.67,15.59z"/>
		<path class="st0" d="M7.61,13.01c0.35,0,0.73,0,1.1,0c-0.14,0.32-0.27,0.64-0.41,0.95c-0.02,0.05-0.1,0.1-0.14,0.09
			c-0.05,0-0.11-0.06-0.13-0.11C7.87,13.65,7.74,13.34,7.61,13.01z"/>
		<path class="st0" d="M6.78,14.2c0,0.11-0.14,0.19-0.23,0.17c-0.14-0.03-0.18-0.15-0.18-0.22c0-0.07,0.08-0.21,0.2-0.2
			C6.69,13.95,6.78,14.04,6.78,14.2z"/>
		<path class="st0" d="M9.92,14.2c0,0.11-0.14,0.19-0.23,0.17c-0.14-0.03-0.18-0.15-0.18-0.22c0-0.07,0.08-0.21,0.2-0.2
			C9.83,13.95,9.92,14.04,9.92,14.2z"/>
		<path class="st0" d="M19.16,14.2c0,0.11-0.14,0.19-0.23,0.17c-0.14-0.03-0.18-0.15-0.18-0.22c0-0.07,0.08-0.21,0.2-0.2
			C19.07,13.95,19.16,14.04,19.16,14.2z"/>
	</g>
</g>
</svg>
